%TF.GenerationSoftware,KiCad,Pcbnew,(5.1.10-1-10_14)*%
%TF.CreationDate,2021-10-17T13:29:00+11:00*%
%TF.ProjectId,glove-board,676c6f76-652d-4626-9f61-72642e6b6963,rev?*%
%TF.SameCoordinates,Original*%
%TF.FileFunction,Copper,L2,Bot*%
%TF.FilePolarity,Positive*%
%FSLAX46Y46*%
G04 Gerber Fmt 4.6, Leading zero omitted, Abs format (unit mm)*
G04 Created by KiCad (PCBNEW (5.1.10-1-10_14)) date 2021-10-17 13:29:00*
%MOMM*%
%LPD*%
G01*
G04 APERTURE LIST*
%TA.AperFunction,ComponentPad*%
%ADD10O,1.700000X2.000000*%
%TD*%
%TA.AperFunction,ComponentPad*%
%ADD11O,1.950000X1.700000*%
%TD*%
%TA.AperFunction,ComponentPad*%
%ADD12C,1.600000*%
%TD*%
%TA.AperFunction,ComponentPad*%
%ADD13O,1.600000X1.600000*%
%TD*%
%TA.AperFunction,Conductor*%
%ADD14C,0.250000*%
%TD*%
G04 APERTURE END LIST*
%TO.P,BTN1,1*%
%TO.N,Net-(BTN1-Pad1)*%
%TA.AperFunction,ComponentPad*%
G36*
G01*
X117260000Y-1018020000D02*
X117260000Y-1016520000D01*
G75*
G02*
X117510000Y-1016270000I250000J0D01*
G01*
X118710000Y-1016270000D01*
G75*
G02*
X118960000Y-1016520000I0J-250000D01*
G01*
X118960000Y-1018020000D01*
G75*
G02*
X118710000Y-1018270000I-250000J0D01*
G01*
X117510000Y-1018270000D01*
G75*
G02*
X117260000Y-1018020000I0J250000D01*
G01*
G37*
%TD.AperFunction*%
D10*
%TO.P,BTN1,2*%
%TO.N,Net-(BTN1-Pad2)*%
X120610000Y-1017270000D03*
%TD*%
%TO.P,J1,1*%
%TO.N,Net-(J1-Pad1)*%
%TA.AperFunction,ComponentPad*%
G36*
G01*
X108495000Y-1017690000D02*
X109945000Y-1017690000D01*
G75*
G02*
X110195000Y-1017940000I0J-250000D01*
G01*
X110195000Y-1019140000D01*
G75*
G02*
X109945000Y-1019390000I-250000J0D01*
G01*
X108495000Y-1019390000D01*
G75*
G02*
X108245000Y-1019140000I0J250000D01*
G01*
X108245000Y-1017940000D01*
G75*
G02*
X108495000Y-1017690000I250000J0D01*
G01*
G37*
%TD.AperFunction*%
D11*
%TO.P,J1,2*%
%TO.N,Net-(BTN1-Pad1)*%
X109220000Y-1021040000D03*
%TO.P,J1,3*%
%TO.N,Net-(J1-Pad3)*%
X109220000Y-1023540000D03*
%TD*%
%TO.P,J2,3*%
%TO.N,Net-(J1-Pad3)*%
X109220000Y-1012110000D03*
%TO.P,J2,2*%
%TO.N,Net-(BTN1-Pad1)*%
X109220000Y-1009610000D03*
%TO.P,J2,1*%
%TO.N,Net-(J2-Pad1)*%
%TA.AperFunction,ComponentPad*%
G36*
G01*
X108495000Y-1006260000D02*
X109945000Y-1006260000D01*
G75*
G02*
X110195000Y-1006510000I0J-250000D01*
G01*
X110195000Y-1007710000D01*
G75*
G02*
X109945000Y-1007960000I-250000J0D01*
G01*
X108495000Y-1007960000D01*
G75*
G02*
X108245000Y-1007710000I0J250000D01*
G01*
X108245000Y-1006510000D01*
G75*
G02*
X108495000Y-1006260000I250000J0D01*
G01*
G37*
%TD.AperFunction*%
%TD*%
%TO.P,J3,1*%
%TO.N,Net-(J3-Pad1)*%
%TA.AperFunction,ComponentPad*%
G36*
G01*
X108495000Y-994830000D02*
X109945000Y-994830000D01*
G75*
G02*
X110195000Y-995080000I0J-250000D01*
G01*
X110195000Y-996280000D01*
G75*
G02*
X109945000Y-996530000I-250000J0D01*
G01*
X108495000Y-996530000D01*
G75*
G02*
X108245000Y-996280000I0J250000D01*
G01*
X108245000Y-995080000D01*
G75*
G02*
X108495000Y-994830000I250000J0D01*
G01*
G37*
%TD.AperFunction*%
%TO.P,J3,2*%
%TO.N,Net-(BTN1-Pad1)*%
X109220000Y-998180000D03*
%TO.P,J3,3*%
%TO.N,Net-(J1-Pad3)*%
X109220000Y-1000680000D03*
%TD*%
%TO.P,J4,3*%
%TO.N,Net-(J1-Pad3)*%
X109220000Y-989250000D03*
%TO.P,J4,2*%
%TO.N,Net-(BTN1-Pad1)*%
X109220000Y-986750000D03*
%TO.P,J4,1*%
%TO.N,Net-(J4-Pad1)*%
%TA.AperFunction,ComponentPad*%
G36*
G01*
X108495000Y-983400000D02*
X109945000Y-983400000D01*
G75*
G02*
X110195000Y-983650000I0J-250000D01*
G01*
X110195000Y-984850000D01*
G75*
G02*
X109945000Y-985100000I-250000J0D01*
G01*
X108495000Y-985100000D01*
G75*
G02*
X108245000Y-984850000I0J250000D01*
G01*
X108245000Y-983650000D01*
G75*
G02*
X108495000Y-983400000I250000J0D01*
G01*
G37*
%TD.AperFunction*%
%TD*%
D12*
%TO.P,R1,1*%
%TO.N,Net-(J1-Pad3)*%
X114300000Y-1009650000D03*
D13*
%TO.P,R1,2*%
%TO.N,Net-(J1-Pad1)*%
X124460000Y-1009650000D03*
%TD*%
%TO.P,R2,2*%
%TO.N,Net-(J2-Pad1)*%
X124460000Y-1005840000D03*
D12*
%TO.P,R2,1*%
%TO.N,Net-(J1-Pad3)*%
X114300000Y-1005840000D03*
%TD*%
%TO.P,R3,1*%
%TO.N,Net-(J1-Pad3)*%
X114300000Y-1002030000D03*
D13*
%TO.P,R3,2*%
%TO.N,Net-(J3-Pad1)*%
X124460000Y-1002030000D03*
%TD*%
%TO.P,R4,2*%
%TO.N,Net-(J4-Pad1)*%
X124460000Y-998220000D03*
D12*
%TO.P,R4,1*%
%TO.N,Net-(J1-Pad3)*%
X114300000Y-998220000D03*
%TD*%
%TO.P,U1,17*%
%TO.N,Net-(U1-Pad17)*%
X137160000Y-1021080000D03*
%TO.P,U1,18*%
%TO.N,Net-(U1-Pad18)*%
X139700000Y-1021080000D03*
%TO.P,U1,19*%
%TO.N,Net-(U1-Pad19)*%
X142240000Y-1021080000D03*
%TO.P,U1,20*%
%TO.N,Net-(U1-Pad20)*%
X144780000Y-1021080000D03*
%TO.P,U1,16*%
%TO.N,Net-(U1-Pad16)*%
X134620000Y-1021080000D03*
%TO.P,U1,15*%
%TO.N,Net-(U1-Pad15)*%
X132080000Y-1021080000D03*
%TO.P,U1,14*%
%TO.N,Net-(U1-Pad14)*%
X129540000Y-1021080000D03*
%TO.P,U1,21*%
%TO.N,Net-(U1-Pad21)*%
X144780000Y-1018540000D03*
%TO.P,U1,22*%
%TO.N,Net-(U1-Pad22)*%
X144780000Y-1016000000D03*
%TO.P,U1,23*%
%TO.N,Net-(J1-Pad1)*%
X144780000Y-1013460000D03*
%TO.P,U1,24*%
%TO.N,Net-(J2-Pad1)*%
X144780000Y-1010920000D03*
%TO.P,U1,25*%
%TO.N,Net-(J3-Pad1)*%
X144780000Y-1008380000D03*
%TO.P,U1,26*%
%TO.N,Net-(J4-Pad1)*%
X144780000Y-1005840000D03*
%TO.P,U1,27*%
%TO.N,Net-(U1-Pad27)*%
X144780000Y-1003300000D03*
%TO.P,U1,28*%
%TO.N,Net-(U1-Pad28)*%
X144780000Y-1000760000D03*
%TO.P,U1,29*%
%TO.N,Net-(U1-Pad29)*%
X144780000Y-998220000D03*
%TO.P,U1,30*%
%TO.N,Net-(U1-Pad30)*%
X144780000Y-995680000D03*
%TO.P,U1,31*%
%TO.N,Net-(J1-Pad3)*%
X144780000Y-993140000D03*
%TO.P,U1,32*%
%TO.N,Net-(U1-Pad32)*%
X144780000Y-990600000D03*
%TO.P,U1,33*%
%TO.N,Net-(U1-Pad33)*%
X144780000Y-988060000D03*
%TO.P,U1,34*%
%TO.N,Net-(U1-Pad34)*%
X142240000Y-990600000D03*
%TO.P,U1,13*%
%TO.N,Net-(U1-Pad13)*%
X129540000Y-1018540000D03*
%TO.P,U1,12*%
%TO.N,Net-(U1-Pad12)*%
X129540000Y-1016000000D03*
%TO.P,U1,11*%
%TO.N,Net-(U1-Pad11)*%
X129540000Y-1013460000D03*
%TO.P,U1,10*%
%TO.N,Net-(U1-Pad10)*%
X129540000Y-1010920000D03*
%TO.P,U1,9*%
%TO.N,Net-(U1-Pad9)*%
X129540000Y-1008380000D03*
%TO.P,U1,8*%
%TO.N,Net-(U1-Pad8)*%
X129540000Y-1005840000D03*
%TO.P,U1,7*%
%TO.N,Net-(U1-Pad7)*%
X129540000Y-1003300000D03*
%TO.P,U1,6*%
%TO.N,Net-(U1-Pad6)*%
X129540000Y-1000760000D03*
%TO.P,U1,5*%
%TO.N,Net-(U1-Pad5)*%
X129540000Y-998220000D03*
%TO.P,U1,4*%
%TO.N,Net-(U1-Pad4)*%
X129540000Y-995680000D03*
%TO.P,U1,3*%
%TO.N,Net-(BTN1-Pad2)*%
X129540000Y-993140000D03*
%TO.P,U1,2*%
%TO.N,Net-(U1-Pad2)*%
X129540000Y-990600000D03*
%TO.P,U1,1*%
%TO.N,Net-(BTN1-Pad1)*%
X129540000Y-988060000D03*
%TO.P,U1,35*%
%TO.N,Net-(U1-Pad35)*%
X142240000Y-1016000000D03*
%TO.P,U1,36*%
%TO.N,Net-(U1-Pad36)*%
X142240000Y-1013460000D03*
%TO.P,U1,37*%
%TO.N,Net-(U1-Pad37)*%
X139700000Y-1016000000D03*
%TO.P,U1,38*%
%TO.N,Net-(U1-Pad38)*%
X139700000Y-1013460000D03*
%TO.P,U1,39*%
%TO.N,Net-(U1-Pad39)*%
X137160000Y-1016000000D03*
%TO.P,U1,40*%
%TO.N,Net-(U1-Pad40)*%
X137160000Y-1013460000D03*
%TO.P,U1,41*%
%TO.N,Net-(U1-Pad41)*%
X134620000Y-1016000000D03*
%TO.P,U1,42*%
%TO.N,Net-(U1-Pad42)*%
X134620000Y-1013460000D03*
%TO.P,U1,43*%
%TO.N,Net-(U1-Pad43)*%
X132080000Y-1016000000D03*
%TO.P,U1,44*%
%TO.N,Net-(U1-Pad44)*%
X132080000Y-1013460000D03*
%TD*%
D14*
%TO.N,Net-(BTN1-Pad2)*%
X129790003Y-1009794999D02*
X128085001Y-1009794999D01*
X130665001Y-1008129997D02*
X130665001Y-1008920001D01*
X130665001Y-1008920001D02*
X129790003Y-1009794999D01*
X145030003Y-994554999D02*
X144239999Y-994554999D01*
X145905001Y-993680001D02*
X145030003Y-994554999D01*
X145905001Y-992599999D02*
X145905001Y-993680001D01*
X145320001Y-992014999D02*
X145905001Y-992599999D01*
X144239999Y-994554999D02*
X130665001Y-1008129997D01*
X130665001Y-992014999D02*
X145320001Y-992014999D01*
X128085001Y-1009794999D02*
X120610000Y-1017270000D01*
X129540000Y-993140000D02*
X130665001Y-992014999D01*
%TO.N,Net-(J1-Pad3)*%
X118254999Y-994265001D02*
X114300000Y-998220000D01*
X143654999Y-994265001D02*
X118254999Y-994265001D01*
X144780000Y-993140000D02*
X143654999Y-994265001D01*
X114300000Y-998220000D02*
X114300000Y-1002030000D01*
X114300000Y-1002030000D02*
X114300000Y-1005840000D01*
X114300000Y-1005840000D02*
X114300000Y-1009650000D01*
X114300000Y-1018460000D02*
X109220000Y-1023540000D01*
X114300000Y-1009650000D02*
X114300000Y-1018460000D01*
X114300000Y-1006971370D02*
X109220000Y-1012051370D01*
X109220000Y-1012051370D02*
X109220000Y-1012110000D01*
X114300000Y-1005840000D02*
X114300000Y-1006971370D01*
X110570000Y-1002030000D02*
X109220000Y-1000680000D01*
X114300000Y-1002030000D02*
X110570000Y-1002030000D01*
X114300000Y-994330000D02*
X109220000Y-989250000D01*
X114300000Y-998220000D02*
X114300000Y-994330000D01*
%TD*%
M02*
